<svg width="1501" height="370" viewBox="0 0 1501 370" fill="none" xmlns="http://www.w3.org/2000/svg">
<path d="M310.003 0.363626V364H235.429L90.7202 154.128H88.4119V364H0.521309V0.363626H76.1605L219.271 209.881H222.29V0.363626H310.003ZM541.226 246.28V91.2727H627.874V364H545.132V313.219H542.292C536.255 329.909 525.956 343.167 511.397 352.991C496.955 362.698 479.496 367.551 459.017 367.551C440.433 367.551 424.098 363.29 410.012 354.767C395.926 346.244 384.976 334.348 377.164 319.078C369.351 303.69 365.386 285.697 365.267 265.101V91.2727H452.093V248.055C452.211 262.852 456.117 274.511 463.811 283.034C471.506 291.557 481.981 295.818 495.239 295.818C503.88 295.818 511.633 293.924 518.499 290.136C525.483 286.23 530.987 280.607 535.012 273.268C539.155 265.811 541.226 256.815 541.226 246.28ZM734.097 364L663.075 91.2727H750.255L787.009 265.989H789.317L828.735 91.2727H913.785L954.268 264.746H956.576L992.265 91.2727H1079.45L1008.25 364H915.383L872.769 205.087H869.751L827.137 364H734.097ZM1115 364V314.462L1241.42 160.52V158.744H1119.44V91.2727H1344.94V145.605L1227.75 294.753V296.528H1349.2V364H1115Z" fill="#F97316"/>
<path d="M1454.13 369.149C1441.35 369.149 1430.4 364.651 1421.29 355.655C1412.29 346.659 1407.85 335.768 1407.97 322.984C1407.85 310.437 1412.29 299.724 1421.29 290.847C1430.4 281.85 1441.35 277.352 1454.13 277.352C1466.21 277.352 1476.86 281.85 1486.09 290.847C1495.45 299.724 1500.18 310.437 1500.3 322.984C1500.18 331.507 1497.93 339.26 1493.55 346.244C1489.29 353.228 1483.67 358.792 1476.68 362.935C1469.82 367.078 1462.3 369.149 1454.13 369.149Z" fill="black"/>
</svg>
